Ghetto Stories 2010 DVDRip Xvid BigPerm LKRG 

General
Complete name : Ghetto Stories 2010 DVDRip Xvid BigPerm LKRG\GS_LKRG.avi
Format : AVI
Format/Info : Audio Video Interleave
File size : 1.17 GiB
Duration : 1h 49mn
Overall bit rate : 1 532 Kbps
Writing library : VirtualDub build 32817/release

Video

ID : 0
Format : MPEG-4 Visual
Format profile : Simple@L3
Format settings, BVOP : No
Format settings, QPel : No
Format settings, GMC : No warppoints
Format settings, Matrix : Default (H.263)
Codec ID : XVID
Codec ID/Hint : XviD
Duration : 1h 49mn
Bit rate : 1 329 Kbps
Width : 700 pixels
Height : 394 pixels
Display aspect ratio : 16:9
Frame rate : 29.970 fps
Resolution : 8 bits
Colorimetry : 4:2:0
Scan type : Progressive
Bits/(Pixel*Frame) : 0.161
Stream size : 1.02 GiB (87%)
Writing library : XviD 1.2.1 (UTC 2008-12-04)

Audio

ID : 1
Format : AC-3
Format/Info : Audio Coding 3
Codec ID : 2000
Duration : 1h 49mn
Bit rate mode : Constant
Bit rate : 192 Kbps
Channel(s) : 2 channels
Channel positions : Front: L R
Sampling rate : 48.0 KHz
Stream size : 150 MiB (13%)
Alignment : Aligned on interleaves
Interleave, duration : 33 ms (1.00 video frame)
Interleave, preload duration : 512 ms
Language : English


Screenshots:

 
http://www.postimg.com/image/25000/24310.jpg 
http://www.postimg.com/image/25000/24311.jpg 
http://www.postimg.com/image/25000/24312.jpg


ENJOY!